<svg width="1024" height="1024" viewBox="0 0 1024 1024" fill="none" xmlns="http://www.w3.org/2000/svg">
<rect width="1024" height="1024" fill="black"/>
<path d="M462.684 504.478C465.149 504.478 467.006 505.143 468.252 506.473C469.527 507.775 470.164 509.881 470.164 512.79V527.585H463.556V514.327C463.556 512.693 463.307 511.474 462.808 510.67C462.337 509.839 461.617 509.423 460.647 509.423C459.262 509.423 458.292 510.005 457.738 511.169C457.184 512.333 456.907 514.009 456.907 516.198V527.585H450.257V514.327C450.257 513.247 450.147 512.346 449.925 511.626C449.731 510.906 449.426 510.365 449.011 510.005C448.595 509.617 448.041 509.423 447.348 509.423C446.406 509.423 445.658 509.714 445.104 510.296C444.578 510.878 444.204 511.723 443.982 512.831C443.76 513.939 443.649 515.297 443.649 516.904V527.585H437V504.893H442.029L442.985 507.803H443.234C443.649 507.027 444.162 506.403 444.772 505.932C445.409 505.434 446.129 505.074 446.933 504.852C447.764 504.603 448.65 504.478 449.592 504.478C451.144 504.478 452.446 504.755 453.499 505.309C454.58 505.835 455.425 506.667 456.034 507.803H456.408C457.073 506.639 457.96 505.794 459.068 505.267C460.204 504.741 461.409 504.478 462.684 504.478Z" fill="white"/>
<path d="M485.049 504.478C487.072 504.478 488.817 504.88 490.286 505.683C491.754 506.487 492.89 507.65 493.694 509.174C494.497 510.698 494.899 512.568 494.899 514.785V517.777H481.392C481.447 519.522 481.891 520.894 482.722 521.891C483.581 522.889 484.8 523.387 486.379 523.387C487.764 523.387 489.011 523.249 490.119 522.972C491.255 522.667 492.419 522.21 493.61 521.6V526.38C492.585 526.934 491.463 527.335 490.244 527.585C489.053 527.862 487.57 528 485.797 528C483.636 528 481.711 527.585 480.021 526.754C478.358 525.895 477.042 524.606 476.072 522.889C475.13 521.171 474.659 519.01 474.659 516.405C474.659 513.746 475.089 511.543 475.948 509.797C476.834 508.024 478.053 506.694 479.605 505.808C481.184 504.921 482.999 504.478 485.049 504.478ZM485.174 508.883C484.176 508.883 483.345 509.271 482.68 510.047C482.015 510.823 481.628 512.028 481.517 513.662H488.79C488.79 512.748 488.651 511.931 488.374 511.21C488.097 510.49 487.695 509.922 487.169 509.506C486.642 509.091 485.977 508.883 485.174 508.883Z" fill="white"/>
<path d="M509.272 523.055C509.937 523.055 510.547 522.986 511.101 522.847C511.683 522.708 512.278 522.542 512.888 522.348V526.961C512.195 527.238 511.378 527.474 510.436 527.668C509.522 527.889 508.441 528 507.194 528C505.865 528 504.673 527.779 503.62 527.335C502.595 526.892 501.792 526.13 501.21 525.05C500.628 523.941 500.337 522.418 500.337 520.478V509.548H497.636V506.93L500.877 504.852L502.706 500.073H506.987V504.893H512.639V509.548H506.987V520.478C506.987 521.337 507.194 521.988 507.61 522.431C508.026 522.847 508.58 523.055 509.272 523.055Z" fill="white"/>
<path d="M523.711 502.441C523.711 503.55 523.669 504.616 523.586 505.641C523.531 506.667 523.475 507.387 523.42 507.803H523.752C524.223 507.027 524.75 506.403 525.332 505.932C525.941 505.434 526.62 505.074 527.368 504.852C528.116 504.603 528.92 504.478 529.779 504.478C531.275 504.478 532.591 504.769 533.727 505.351C534.89 505.932 535.805 506.833 536.47 508.052C537.135 509.271 537.467 510.85 537.467 512.79V527.585H530.776V514.327C530.776 512.693 530.527 511.474 530.028 510.67C529.557 509.839 528.809 509.423 527.784 509.423C526.759 509.423 525.941 509.714 525.332 510.296C524.722 510.878 524.293 511.723 524.043 512.831C523.822 513.939 523.711 515.297 523.711 516.904V527.585H517.061V496H523.711V502.441Z" fill="white"/>
<path d="M563.089 516.198C563.089 518.082 562.84 519.758 562.341 521.226C561.87 522.695 561.177 523.941 560.263 524.966C559.349 525.964 558.227 526.726 556.897 527.252C555.595 527.751 554.126 528 552.492 528C550.968 528 549.555 527.751 548.253 527.252C546.95 526.726 545.828 525.964 544.886 524.966C543.972 523.941 543.252 522.695 542.725 521.226C542.226 519.758 541.977 518.082 541.977 516.198C541.977 513.676 542.407 511.557 543.265 509.839C544.124 508.093 545.343 506.764 546.923 505.849C548.502 504.935 550.4 504.478 552.616 504.478C554.667 504.478 556.467 504.935 558.019 505.849C559.598 506.764 560.831 508.093 561.718 509.839C562.632 511.557 563.089 513.676 563.089 516.198ZM548.751 516.198C548.751 517.694 548.876 518.954 549.125 519.979C549.402 520.977 549.818 521.739 550.372 522.265C550.954 522.764 551.688 523.013 552.575 523.013C553.489 523.013 554.209 522.764 554.736 522.265C555.29 521.739 555.692 520.977 555.941 519.979C556.19 518.954 556.315 517.694 556.315 516.198C556.315 514.701 556.19 513.455 555.941 512.457C555.692 511.46 555.276 510.712 554.694 510.213C554.14 509.714 553.42 509.465 552.533 509.465C551.176 509.465 550.206 510.033 549.624 511.169C549.042 512.277 548.751 513.953 548.751 516.198Z" fill="white"/>
<path d="M574.449 528C572.15 528 570.266 527.017 568.797 525.05C567.329 523.055 566.594 520.132 566.594 516.281C566.594 512.402 567.343 509.465 568.839 507.47C570.335 505.475 572.274 504.478 574.657 504.478C575.654 504.478 576.513 504.63 577.234 504.935C577.982 505.212 578.619 505.6 579.145 506.099C579.699 506.597 580.17 507.165 580.558 507.803H580.725C580.641 507.359 580.558 506.722 580.475 505.891C580.392 505.032 580.351 504.159 580.351 503.273V496H587V527.585H581.971L580.6 524.634H580.351C579.99 525.244 579.547 525.812 579.021 526.338C578.494 526.837 577.857 527.238 577.109 527.543C576.361 527.848 575.474 528 574.449 528ZM576.984 523.055C578.37 523.055 579.353 522.556 579.935 521.559C580.544 520.534 580.849 519.01 580.849 516.987V516.322C580.849 514.106 580.572 512.416 580.018 511.252C579.464 510.088 578.425 509.506 576.901 509.506C575.821 509.506 574.948 510.102 574.283 511.294C573.646 512.457 573.327 514.147 573.327 516.364C573.327 518.58 573.646 520.256 574.283 521.392C574.948 522.501 575.848 523.055 576.984 523.055Z" fill="white"/>
</svg>
